<svg width="1440" height="624" viewBox="0 0 1440 624" fill="none" xmlns="http://www.w3.org/2000/svg">
<g clip-path="url(#clip0_2510_32364)">
<path d="M1867.52 658.456C1867.52 658.456 1607.72 744.011 1386.05 703.885C1164.38 663.758 1092.02 505.23 1179.18 267.418C1266.34 29.6053 1040 -49.4853 1040 -49.4853C1040 -49.4853 2023.56 -164.732 1867.52 658.456Z" fill="url(#paint0_linear_2510_32364)"/>
<path d="M-212.365 548.884C493.841 834.571 293.387 -129.035 911.044 204.542C1213.92 368.114 965.382 37.2169 1196.1 109.851C1273.85 134.329 1397.96 173.341 1273.67 61.969C930.114 -245.903 308.446 -490.592 -83.8995 -299.596C-545.054 -75.0998 -555.505 410.064 -212.365 548.876V548.884Z" fill="url(#paint1_linear_2510_32364)"/>
<path d="M475.724 0C432.206 35.2741 388.208 70.059 343.731 104.355C319.595 122.969 295.131 141.549 267.479 155.688C188.93 195.839 91.83 196.155 3.6344 178.199C-84.5611 160.243 -167.177 125.551 -252.357 98.3465C-337.537 71.1416 -428.771 51.1828 -518 64.2829V0H475.724Z" fill="#4102F5"/>
</g>
<defs>
<linearGradient id="paint0_linear_2510_32364" x1="1410.24" y1="790.739" x2="1231.04" y2="138.442" gradientUnits="userSpaceOnUse">
<stop stop-color="#1433D6"/>
<stop offset="1" stop-color="#0F2FDA" stop-opacity="0"/>
</linearGradient>
<linearGradient id="paint1_linear_2510_32364" x1="670.812" y1="-216.037" x2="437.219" y2="602.57" gradientUnits="userSpaceOnUse">
<stop stop-color="#0069FF"/>
<stop offset="1" stop-color="#0069FF" stop-opacity="0"/>
</linearGradient>
<clipPath id="clip0_2510_32364">
<rect width="1440" height="624" fill="white"/>
</clipPath>
</defs>
</svg>
